<svg width="170" height="50" viewBox="0 0 170 50" fill="none" xmlns="http://www.w3.org/2000/svg">
<g clip-path="url(#clip0_151_1955)">
<path d="M46.6325 37.7114C46.6325 37.524 46.6325 37.3365 46.6325 37.1551C46.6325 29.5474 46.6325 21.9398 46.6325 14.3322C46.6325 13.7919 46.9047 13.5198 47.4491 13.5158C49.0701 13.5158 50.6912 13.5158 52.3182 13.5158C52.9347 13.5158 53.2429 13.8181 53.2429 14.4229C53.2429 23.6633 53.2429 32.9098 53.2429 42.1502C53.2429 44.5329 53.2429 46.9156 53.2429 49.2983C53.2429 49.9514 53.2008 49.9937 52.5524 49.9937C50.3189 49.9937 48.0915 49.9937 45.858 49.9998C45.4738 49.9998 45.2456 49.8728 45.0595 49.522C41.193 42.1865 37.3084 34.8631 33.4359 27.5337C31.1664 23.24 28.897 18.9403 26.6275 14.6466C26.5794 14.5559 26.5314 14.4713 26.4834 14.3926C26.3213 14.3805 26.3033 14.5015 26.2612 14.5862C23.4034 19.9925 20.5455 25.3989 17.6876 30.8053C15.5803 34.7845 13.4729 38.7637 11.3655 42.7429C11.0593 43.3234 11.0593 43.3295 11.7197 43.3295C16.4508 43.3295 21.1819 43.3295 25.913 43.3295C26.5734 43.3295 26.5734 43.3174 26.2612 42.7368C25.0785 40.5174 23.9077 38.292 22.7249 36.0726C22.5808 35.8065 22.5748 35.5828 22.7189 35.3106C23.8597 33.1638 24.9944 31.017 26.1292 28.8701C26.1832 28.7673 26.2132 28.6161 26.3513 28.6161C26.5674 28.6161 26.5915 28.8278 26.6695 28.9669C27.9964 31.4584 29.3172 33.95 30.6321 36.4415C32.9016 40.7351 35.1771 45.0349 37.4465 49.3285C37.7828 49.9695 37.7647 49.9937 37.0623 49.9937C24.9104 49.9937 12.7644 49.9937 0.61249 49.9937C0.546447 49.9937 0.4744 49.9937 0.408357 49.9937C0.00609446 50.0119 -0.113984 49.8909 0.102157 49.4918C0.876663 48.0586 1.62715 46.6072 2.38965 45.1679C4.44299 41.2915 6.49633 37.4212 8.54367 33.5508C11.1254 28.6706 13.713 23.7903 16.2947 18.9101C18.6122 14.5257 20.9358 10.1413 23.2533 5.75694C24.1959 3.96691 25.1385 2.18292 26.0871 0.398935C26.1712 0.24775 26.2132 -0.000193697 26.4353 0.0119011C26.6275 0.0179485 26.6635 0.241703 26.7416 0.38684C29.6895 5.9565 32.6374 11.5262 35.5913 17.0958C39.1697 23.8508 42.742 30.6118 46.3203 37.3667C46.3924 37.4998 46.4704 37.6268 46.5425 37.7538C46.5725 37.7417 46.5965 37.7296 46.6265 37.7235L46.6325 37.7114Z" fill="#000100"/>
<path d="M49.8806 6.62202C48.968 6.62202 48.0554 6.60993 47.1488 6.62807C46.7825 6.63412 46.6264 6.53736 46.6324 6.15033C46.6445 4.28168 46.6445 2.41303 46.6324 0.544379C46.6324 0.151297 46.7825 0.012207 47.1728 0.012207C49.01 0.0243018 50.8532 0.0303493 52.6904 0.012207C53.1167 0.012207 53.2488 0.16944 53.2488 0.580663C53.2368 2.41303 53.2368 4.25144 53.2488 6.08381C53.2488 6.47084 53.1167 6.63412 52.7204 6.62807C51.7778 6.60993 50.8292 6.62807 49.8866 6.62807L49.8806 6.62202Z" fill="#042CEB"/>
</g>
<path d="M65.0654 50.0001C64.5131 50.0001 64.0654 49.5524 64.0654 49.0001V14.5715C64.0654 14.0192 64.5131 13.5715 65.0654 13.5715H79.9922C84.3089 13.5715 87.738 14.6817 90.2793 16.9021C92.8206 19.1226 94.0913 21.9154 94.0913 25.2807C94.0913 27.9521 93.2558 30.3113 91.5848 32.3583C89.9486 34.3705 87.6509 35.7409 84.6919 36.4695L92.7768 48.4404C93.2253 49.1045 92.7495 50.0001 91.9481 50.0001H87.3178C86.9823 50.0001 86.6692 49.8319 86.484 49.5522L78.1645 36.9899H70.0706V49.0001C70.0706 49.5524 69.6229 50.0001 69.0706 50.0001H65.0654ZM70.0706 31.2654H79.9922C85.2141 31.2654 87.825 29.2705 87.825 25.2807C87.825 21.2909 85.2141 19.296 79.9922 19.296H70.0706V31.2654Z" fill="#000100"/>
<path d="M103.167 50.0001C102.614 50.0001 102.167 49.5524 102.167 49.0001V14.5715C102.167 14.0192 102.614 13.5715 103.167 13.5715H118.093C122.306 13.5715 125.7 14.7511 128.276 17.1103C130.887 19.4348 132.193 22.3317 132.193 25.8011C132.193 29.2705 130.887 32.1848 128.276 34.544C125.7 36.8685 122.306 38.0307 118.093 38.0307H108.172V49.0001C108.172 49.5524 107.724 50.0001 107.172 50.0001H103.167ZM108.172 32.3062H118.093C120.635 32.3062 122.567 31.7338 123.89 30.5889C125.247 29.4093 125.926 27.8134 125.926 25.8011C125.926 23.7889 125.247 22.2103 123.89 21.0654C122.567 19.8858 120.635 19.296 118.093 19.296H108.172V32.3062Z" fill="#000100"/>
<path d="M140.452 50.0001C139.9 50.0001 139.452 49.5524 139.452 49.0001V14.5715C139.452 14.0192 139.9 13.5715 140.452 13.5715H157.467C160.914 13.5715 163.647 14.4736 165.666 16.2777C167.685 18.047 168.695 20.2675 168.695 22.9389C168.695 25.6103 167.772 27.6572 165.927 29.0797C165.161 29.6695 164.256 30.1379 163.212 30.4848V30.745C164.5 31.0225 165.631 31.4909 166.606 32.1501C168.869 33.7807 170 36.2613 170 39.5919C170 42.6797 168.886 45.195 166.658 47.1378C164.43 49.046 161.279 50.0001 157.206 50.0001H140.452ZM145.457 28.4032H157.206C158.877 28.4032 160.165 27.9868 161.071 27.1542C161.976 26.3215 162.428 25.1593 162.428 23.6674C162.428 22.3491 161.976 21.2909 161.071 20.493C160.165 19.695 158.877 19.296 157.206 19.296H145.457V28.4032ZM145.457 44.2756H156.945C161.471 44.2756 163.734 42.5409 163.734 39.0715C163.734 35.6021 161.471 33.8674 156.945 33.8674H145.457V44.2756Z" fill="#000100"/>
<defs>
<clipPath id="clip0_151_1955">
<rect width="53.2428" height="50" fill="white"/>
</clipPath>
</defs>
</svg>
